<?xml version="1.0" standalone="no"?>
<!DOCTYPE svg PUBLIC "-//W3C//DTD SVG 20010904//EN"
 "http://www.w3.org/TR/2001/REC-SVG-20010904/DTD/svg10.dtd">
<svg version="1.0" xmlns="http://www.w3.org/2000/svg"
 width="512.000000pt" height="512.000000pt" viewBox="0 0 512.000000 512.000000"
 preserveAspectRatio="xMidYMid meet">
<metadata>
Created by potrace 1.14, written by Peter Selinger 2001-2017
</metadata>
<g transform="translate(0.000000,512.000000) scale(0.100000,-0.100000)"
fill="#000000" stroke="none">
<path d="M1645 5091 c-92 -26 -163 -69 -241 -146 -82 -81 -128 -163 -150 -267
-8 -38 -14 -75 -13 -81 1 -7 1 -29 0 -49 l-1 -38 -518 0 c-575 0 -591 -2 -652
-63 -72 -72 -69 -39 -70 -755 0 -702 -1 -683 58 -745 15 -16 45 -38 67 -50 39
-21 48 -22 577 -22 l538 0 0 -1175 c1 -646 3 -1193 6 -1215 12 -97 65 -214
132 -290 66 -76 183 -146 284 -170 94 -22 2942 -22 3036 0 155 37 294 147 366
292 58 115 56 31 56 1843 l0 1666 -644 642 -645 642 -1063 -1 c-960 -1 -1069
-3 -1123 -18z m2061 -698 c2 -335 4 -388 19 -435 44 -132 136 -219 270 -254
38 -10 139 -13 413 -13 199 1 365 0 367 -3 8 -8 13 -3148 5 -3184 -13 -55 -57
-111 -109 -136 l-46 -23 -1442 -1 c-1351 -1 -1445 0 -1480 17 -50 22 -91 63
-111 108 -15 32 -17 152 -19 1201 -1 641 0 1174 2 1185 4 20 12 20 812 20
l808 0 41 22 c23 12 53 36 67 53 53 63 54 73 53 760 -2 595 -3 637 -20 670
-26 49 -54 78 -101 103 -40 22 -42 22 -852 25 l-813 2 5 55 c6 70 24 112 65
152 63 61 22 59 1089 58 l976 0 1 -382z m-2524 -295 c0 -27 -1 -65 -1 -86 l-1
-39 -107 0 c-60 -1 -116 -1 -125 -2 -17 -1 -18 -26 -18 -371 l0 -370 -103 0
-104 0 0 363 c0 200 -2 368 -5 373 -4 5 -53 8 -110 7 -56 0 -110 1 -118 3 -12
3 -15 20 -14 86 1 46 2 84 3 86 0 1 159 1 352 0 l352 -3 -1 -47z m380 -85 c36
-76 69 -149 73 -162 9 -30 17 -20 50 59 15 36 45 104 67 153 l41 87 120 0 119
0 -16 -25 c-9 -13 -28 -46 -43 -72 -14 -26 -57 -102 -96 -168 -38 -66 -78
-135 -88 -153 l-19 -33 131 -227 c72 -125 133 -230 136 -234 2 -5 -50 -8 -117
-8 l-120 0 -82 166 -81 165 -66 -148 c-36 -81 -71 -156 -77 -166 -9 -16 -24
-17 -126 -15 l-116 3 110 190 c163 282 161 277 139 301 -5 5 -51 83 -102 174
-51 91 -103 184 -116 206 l-24 42 119 1 119 2 65 -138z m1238 49 l0 -88 -112
-1 c-62 -1 -119 -2 -125 -2 -10 -1 -13 -82 -13 -371 l0 -370 -105 0 -105 0 -2
372 -3 372 -110 1 c-60 1 -115 2 -121 3 -7 1 -11 33 -10 87 l0 85 353 0 353 0
0 -88z"/>
<path d="M2094 2472 c-50 -7 -66 -14 -98 -43 -84 -73 -74 -204 21 -269 l37
-25 1120 0 c1077 0 1122 1 1159 19 115 57 117 233 3 297 l-41 23 -1091 1
c-600 0 -1099 -1 -1110 -3z"/>
<path d="M2030 1772 c-124 -66 -121 -246 4 -303 39 -18 90 -19 1146 -19 1056
0 1107 1 1146 19 119 54 130 213 20 295 -27 21 -34 21 -1154 24 -1083 2 -1128
1 -1162 -16z"/>
<path d="M2035 1091 c-132 -60 -129 -251 5 -307 29 -13 198 -15 1140 -15 781
0 1115 4 1136 11 36 14 71 46 90 83 31 58 12 158 -36 202 -49 45 -35 44 -1195
44 -1047 1 -1102 0 -1140 -18z"/>
</g>
</svg>
